<?xml version="1.0" encoding="UTF-8"?>
<!DOCTYPE svg PUBLIC "-//W3C//DTD SVG 1.1//EN" "http://www.w3.org/Graphics/SVG/1.1/DTD/svg11.dtd">
<!-- Creator: CorelDRAW 2020 (64-Bit) -->
<svg xmlns="http://www.w3.org/2000/svg" xml:space="preserve" width="100%" height="100%" version="1.1" style="shape-rendering:geometricPrecision; text-rendering:geometricPrecision; image-rendering:optimizeQuality; fill-rule:evenodd; clip-rule:evenodd"
viewBox="0 0 1686 217"
 xmlns:xlink="http://www.w3.org/1999/xlink"
 xmlns:xodm="http://www.corel.com/coreldraw/odm/2003">
 <defs>
  <style type="text/css">
   <![CDATA[
    .fil0 {fill:#797979}
   ]]>
  </style>
 </defs>
 <g id="Layer_x0020_1">
  <metadata id="CorelCorpID_0Corel-Layer"/>
  <g id="_3104974381536">
   <path class="fil0" d="M71 213c52,0 39,13 39,-61 0,-25 0,-49 0,-74 9,6 6,4 12,14 4,7 7,11 11,18 8,12 15,22 23,35l21 34c8,12 16,23 23,35l35 0 0 -210 -39 0 0 132c-7,-5 -18,-23 -23,-32 -4,-6 -6,-10 -10,-16l-43 -66c-5,-8 -7,-10 -11,-18l-39 0 0 210z"/>
   <path class="fil0" d="M432 213l32 0c6,-12 29,-79 29,-93 9,7 13,29 19,46 5,15 10,35 17,48l32 0c2,-26 44,-142 45,-161l-42 0c0,3 -17,82 -23,90l-29 -90 -32 0c-7,15 -20,78 -32,87 0,-14 -6,-31 -9,-43 -3,-14 -9,-31 -10,-44l-42 0 45 161z"/>
   <path class="fil0" d="M1080 136c0,-62 71,-70 71,3 0,58 -71,57 -71,-3zm-35 68c0,13 10,10 32,10 3,-6 2,-4 3,-13 75,51 125,-27 104,-97 -9,-30 -29,-51 -65,-51 -18,0 -25,9 -35,16 0,-13 0,-26 0,-39 0,-33 6,-29 -39,-29l0 203z"/>
   <path class="fil0" d="M1599 155c0,-30 -5,-61 29,-61 26,0 19,48 19,74 -6,4 -13,13 -23,13 -16,0 -26,-10 -26,-26zm48 -77c-15,-10 -9,-16 -35,-16 -73,0 -74,151 0,151 25,0 25,-10 39,-19l0 16 35 0 0 -210 -39 0 0 77z"/>
   <path class="fil0" d="M1270 181c-20,0 -17,1 -32,-6 0,-12 -1,-23 20,-28 7,-2 28,-4 34,-4l0 29c-7,5 -11,10 -23,10zm-55 -71l29 0c0,-18 2,-11 10,-23 39,0 42,-4 42,23 -30,16 -74,3 -90,35 -22,43 27,100 94,55 2,7 0,7 8,12 13,7 29,4 41,-2l0 -23c-10,-7 -2,-5 -16,-6 0,-64 17,-129 -58,-129 -64,0 -78,58 -58,58z"/>
   <path class="fil0" d="M954 181c-8,0 -32,2 -32,-13 0,-28 39,-20 58,-29 0,25 -1,42 -26,42zm-61 -71l35 0c2,-26 17,-23 39,-23 15,0 13,14 13,23 -36,19 -93,-3 -93,61 0,41 48,62 97,29 11,20 28,20 48,10l0 -26c-9,-4 -3,-3 -16,-3 0,-47 9,-101 -17,-118 -22,-14 -105,-25 -105,47z"/>
   <path class="fil0" d="M316 84l16 0c7,11 11,9 13,26l-52 0c2,-7 3,-11 7,-16 3,-4 10,-10 16,-10zm-64 35c0,27 0,56 22,75 25,22 56,23 87,11 13,-5 17,-8 24,-18 -6,-9 -11,-16 -16,-26 -24,16 -14,16 -48,16 -20,0 -27,-17 -29,-35 109,0 100,7 94,-26 -8,-46 -16,-64 -72,-64 -33,0 -61,35 -61,68z"/>
   <path class="fil0" d="M606 97c0,38 36,44 65,51 20,5 18,8 22,16 -9,16 -11,13 -42,13 -3,-4 -6,-7 -8,-11 -3,-6 -2,-8 -5,-15l-35 0 0 16c0,56 129,65 129,-6 0,-22 -18,-33 -34,-40 -23,-10 -53,-10 -53,-22 0,-21 44,-26 45,6l39 0c0,-79 -122,-66 -122,-10z"/>
   <path class="fil0" d="M815 178c-13,1 -8,3 -16,3 -8,0 -3,-2 -16,-3 -3,-12 -6,-10 -6,-23 -1,-24 7,-23 -32,-23 -5,0 -10,2 -10,6 0,106 101,83 117,53 18,-33 12,-136 12,-182 0,-13 -9,-10 -32,-10 -15,0 -10,23 -10,39l0 119c-1,9 -4,9 -6,19z"/>
   <path class="fil0" d="M1396 68c-1,-10 0,-6 -3,-13l-32 0c-7,30 -3,109 -3,145 0,16 17,13 29,13 16,0 9,-42 10,-74 1,-48 25,-48 52,-48 0,-43 5,-53 -52,-23z"/>
   <path class="fil0" d="M3 213l42 0 0 -139c0,-7 -2,-10 -10,-10l-32 0 0 148z"/>
   <path class="fil0" d="M1502 78l0 122c0,14 -15,13 39,13l0 -139c0,-13 -9,-10 -32,-10 -14,0 -6,5 -6,13z"/>
   <path class="fil0" d="M1496 29c0,10 9,16 13,23 33,0 35,-3 35,-35 -3,-2 -24,-24 -41,-6 -3,3 -7,14 -7,19z"/>
   <path class="fil0" d="M0 26c0,15 7,17 13,26l23 0c19,-28 18,-21 0,-48l-23 0c-4,6 -13,13 -13,23z"/>
   <path class="fil0" d="M1444 194c14,26 28,26 42,0 -5,-10 -4,-10 -10,-19l-23 0c-6,9 -5,10 -10,19z"/>
  </g>
 </g>
</svg>
