<?xml version="1.0" encoding="UTF-8"?>
<!DOCTYPE svg PUBLIC "-//W3C//DTD SVG 1.1//EN" "http://www.w3.org/Graphics/SVG/1.1/DTD/svg11.dtd">
<!-- Creator: CorelDRAW 2020 (64-Bit) -->
<svg xmlns="http://www.w3.org/2000/svg" xml:space="preserve" width="70%" height="70%" version="1.1" style="shape-rendering:geometricPrecision; text-rendering:geometricPrecision; image-rendering:optimizeQuality; fill-rule:evenodd; clip-rule:evenodd"
viewBox="0 0 1440 451"
 xmlns:xlink="http://www.w3.org/1999/xlink"
 xmlns:xodm="http://www.corel.com/coreldraw/odm/2003">
 <defs>
  <style type="text/css">
   <![CDATA[
    .fil0 {fill:#757575}
   ]]>
  </style>
 </defs>
 <g id="Layer_x0020_1">
  <metadata id="CorelCorpID_0Corel-Layer"/>
  <g id="_3104973732432">
   <g>
    <path class="fil0" d="M1290 233l21 42c4,10 2,2 6,13l21 57 -86 0c8,-34 35,-87 37,-112zm-109 217c100,0 49,-8 49,-30 0,-48 11,-24 11,-56l105 0c35,66 11,68 7,82 15,8 68,4 86,0l0 -7c-24,-6 -33,-31 -44,-58l-15 -38c-6,-13 -8,-25 -14,-38 -6,-13 -8,-23 -14,-35l-37 -94c-5,-14 0,-10 -15,-11 -5,19 -15,37 -22,57l-23 56c-6,13 -10,26 -16,40l-31 74c-4,9 -3,10 -9,18 -4,6 0,0 -5,6 -4,5 -2,4 -6,9 -3,4 -34,25 -8,25z"/>
    <path class="fil0" d="M398 53c0,28 2,81 -3,105 -5,23 -7,7 -12,26l45 0c-4,-15 -15,-18 -15,-52 0,-24 0,-48 0,-71 13,10 23,47 31,62 5,10 2,2 8,15l25 50c10,-5 8,0 13,-10 3,-6 3,-13 6,-20l31 -71c9,-24 9,-27 18,-34 0,19 3,101 -2,114 -7,17 -27,17 40,17 -4,-16 -11,-21 -11,-41 0,-27 -3,-99 5,-119 7,-18 17,-19 -27,-19 -8,12 -11,16 -16,32l-20 51c-20,47 -11,47 -27,51l-64 -135c-51,0 -36,1 -28,17 4,7 6,22 6,32z"/>
    <path class="fil0" d="M364 386c-51,0 -37,24 -37,-173 37,0 70,4 85,39 26,62 -3,134 -47,134zm-71 -154l0 139c0,33 -46,30 60,30 109,0 142,-137 56,-187 -28,-17 -83,-11 -127,-11 4,8 11,18 11,30z"/>
    <path class="fil0" d="M503 304c0,-125 124,-129 124,4 0,21 -6,44 -15,56 -35,50 -109,30 -109,-60zm-34 -26c0,41 -3,96 54,119 32,12 54,12 86,-1 53,-22 76,-112 27,-169 -15,-17 -52,-31 -70,-31 -54,0 -98,50 -98,83z"/>
    <path class="fil0" d="M109 251c0,25 3,108 -4,127 -6,15 -9,3 -11,23 66,0 47,0 38,-19 -3,-7 -8,-27 -8,-37 -1,-28 0,-58 0,-86l91 112c4,5 2,3 6,9 18,22 16,24 31,26l0 -146c0,-30 9,-37 19,-56l-49 0c7,25 15,-4 15,64 0,26 0,53 0,79 -10,-7 -101,-129 -109,-142l-34 0c5,18 15,11 15,49z"/>
    <path class="fil0" d="M679 247c0,31 3,103 -4,127 -5,16 -9,9 -11,27l49 0c-4,-17 -18,-13 -19,-60 0,-27 0,-55 0,-83 14,9 20,23 31,36l75 94c8,11 4,14 22,16l0 -135c0,-23 4,-27 4,-49 12,-8 8,-6 15,-19l-49 0c7,25 15,-4 15,64 0,26 0,53 0,79 -11,-8 -81,-103 -95,-122 -8,-10 -7,-9 -14,-20l-34 0c4,17 15,19 15,45z"/>
    <path class="fil0" d="M19 180l0 232c0,22 -8,12 -19,26 14,8 54,4 71,4 -2,-21 -11,-13 -11,-34l0 -214c0,-21 10,-13 11,-34l-68 0c1,12 2,10 15,19z"/>
    <path class="fil0" d="M859 221l0 158c0,15 -6,0 -8,23l127 0c15,0 11,-12 11,-41 0,-14 1,-1 -4,-11 -15,11 -10,28 -28,35 -16,6 -43,2 -62,2 -7,-28 -4,-49 -4,-83 15,0 22,1 34,4 13,3 18,8 19,22l11 0 0 -53c0,-14 1,-1 -4,-11 -29,21 9,26 -60,26l0 -79c36,0 71,-7 82,34 11,-7 8,-1 8,-45l-131 0c4,16 8,7 8,19z"/>
    <path class="fil0" d="M998 247c0,39 29,55 63,72 75,39 -8,116 -45,38 -7,-15 -4,-13 -14,-16 -7,12 -4,31 -4,45 76,51 151,-10 111,-70 -12,-18 -114,-61 -73,-98 11,-10 26,-9 39,-3 28,13 12,34 35,40l0 -45c-65,-35 -112,4 -112,37z"/>
    <path class="fil0" d="M964 53c11,8 26,48 30,64l-53 0c2,-22 15,-33 23,-64zm-79 131c90,0 19,4 49,-53l67 0c20,42 7,40 4,53l56 0c-4,-14 -11,-8 -26,-42 -4,-9 -4,-14 -9,-25l-40 -95c-5,-14 -2,-15 -12,-22 -11,8 -6,7 -12,22 -3,8 -7,15 -11,23 -9,20 -39,101 -52,117 -9,11 -12,6 -16,22z"/>
    <path class="fil0" d="M765 173c-40,0 -30,2 -30,-120 24,0 42,-4 59,20 27,40 1,100 -29,100zm-53 -105c0,65 5,63 -7,116 34,0 63,4 86,-7 57,-26 52,-105 4,-128 -24,-11 -56,-7 -90,-7 3,13 7,13 7,26z"/>
    <path class="fil0" d="M600 60l0 97c0,13 -3,15 -4,26l97 0c0,-26 4,-19 0,-37l-7 0c-4,18 -7,14 -15,26 -55,0 -45,10 -45,-56 41,0 22,9 45,15l0 -41c-28,7 8,15 -45,15l0 -53c70,0 37,4 64,23l0 -34 -94 0c2,8 4,9 4,19z"/>
    <path class="fil0" d="M1140 225l0 146c0,18 -7,15 -11,30l53 0c-2,-21 -11,-13 -11,-34l0 -127c0,-22 7,-22 11,-37l-53 0c3,6 11,17 11,22z"/>
    <path class="fil0" d="M844 68l0 90c0,13 -3,15 -4,26l34 0c-1,-12 -4,-13 -4,-26l0 -101c0,-8 3,-8 8,-15l-37 0c1,12 4,13 4,26z"/>
   </g>
  </g>
 </g>
</svg>
