<?xml version="1.0" encoding="UTF-8"?>
<!DOCTYPE svg PUBLIC "-//W3C//DTD SVG 1.1//EN" "http://www.w3.org/Graphics/SVG/1.1/DTD/svg11.dtd">
<!-- Creator: CorelDRAW 2020 (64-Bit) -->
<svg xmlns="http://www.w3.org/2000/svg" xml:space="preserve" width="44%" height="44%" version="1.1" style="shape-rendering:geometricPrecision; text-rendering:geometricPrecision; image-rendering:optimizeQuality; fill-rule:evenodd; clip-rule:evenodd"
viewBox="0 0 803 177"
 xmlns:xlink="http://www.w3.org/1999/xlink"
 xmlns:xodm="http://www.corel.com/coreldraw/odm/2003">
 <defs>
  <style type="text/css">
   <![CDATA[
    .fil0 {fill:#6E6E6E}
   ]]>
  </style>
 </defs>
 <g id="Layer_x0020_1">
  <metadata id="CorelCorpID_0Corel-Layer"/>
  <g id="_3105083423232">
   <g>
    <path class="fil0" d="M730 50c0,-13 22,-15 22,0 0,13 -22,12 -22,0zm30 -1l0 10 -5 0 0 -20c6,0 3,-1 4,2 3,-1 4,-2 6,-2 4,0 5,2 6,2 1,0 14,-7 14,5l0 12 -5 0c0,-13 1,-14 -4,-14 -5,0 -3,4 -3,14 -6,0 -7,0 -6,-7 0,-5 1,-2 -1,-7 -2,0 -6,0 -6,4zm-43 2l1 1c0,0 0,0 0,1l2 2c0,0 0,0 1,0 6,0 8,-4 8,3 -24,6 -20,-19 -8,-19l8 1c0,4 0,2 -2,5 -5,-3 -8,-4 -10,5zm-24 -34l0 63c0,13 9,17 21,17l70 0c5,0 10,-1 13,-3 3,-2 7,-6 7,-11l0 -67c0,-9 -10,-14 -20,-14l-72 0c-11,0 -19,6 -19,17z"/>
    <path class="fil0" d="M403 51l0 -5c0,-26 42,-26 42,0 0,14 -5,25 -21,25 -12,0 -22,-8 -22,-20zm-29 -7c0,18 1,26 16,40 19,19 60,19 80,-12 6,-9 6,-17 6,-27 0,-10 -5,-19 -9,-25 0,0 16,-20 6,-20 -17,0 -50,-2 -64,3 -8,2 -11,4 -16,9 -8,6 -18,18 -18,32z"/>
    <path class="fil0" d="M625 24c9,0 18,4 20,11l-36 0c1,-5 9,-11 17,-11zm-48 21c0,18 3,26 16,39 30,27 73,3 73,-3 0,-4 -4,-6 -6,-9 -7,-10 -9,-7 -14,-4 -2,1 -3,2 -6,3 -12,4 -26,4 -32,-6 -5,-8 -4,-7 17,-7 9,0 19,0 28,0 7,0 21,3 21,-8 0,-8 -1,-15 -4,-20 -4,-7 -5,-9 -10,-14 -10,-10 -19,-13 -33,-15 -9,-1 -27,5 -35,12 -8,8 -16,19 -16,32z"/>
    <path class="fil0" d="M245 24c12,0 15,1 22,11l-37 0c3,-5 9,-11 16,-11zm-47 24c0,17 8,29 19,37 35,26 70,0 70,-5 0,-6 -11,-16 -13,-16 -6,0 -11,8 -25,8 -4,0 -11,-2 -14,-4 -4,-3 -7,-6 -7,-12l60 0c15,0 6,-33 -8,-44 -6,-4 -6,-5 -15,-9 -17,-7 -36,-3 -50,8 -6,5 -3,1 -9,9 -5,7 -9,17 -9,27z"/>
    <path class="fil0" d="M105 8l0 80c0,4 2,5 3,7 9,0 18,1 27,-1 6,-25 -7,-13 9,-30 3,3 1,1 4,4l23 26c2,2 26,1 30,1 11,0 -6,-15 -6,-15 -6,-8 -12,-13 -16,-17 -6,-8 -12,-11 -15,-18 5,-7 17,-19 21,-25 6,-8 12,-12 12,-18 -2,-1 -2,-2 -4,-2 -27,0 -25,-4 -41,17l-16 19 0 -33c-7,-5 -10,-3 -24,-3 -5,0 -7,2 -7,7z"/>
    <path class="fil0" d="M52 71c-31,0 -30,-44 0,-44 12,0 19,10 20,22 1,12 -8,22 -20,22zm-52 -26c0,16 3,28 15,39 33,30 94,6 86,-45 -4,-26 -36,-46 -69,-35 -9,3 -11,6 -17,10 -7,5 -15,20 -15,31z"/>
    <path class="fil0" d="M506 16c-2,-7 -2,-8 -5,-13l-19 0c-1,2 -3,3 -3,7l0 82c6,5 7,3 26,3l5 -3c2,-6 -3,-48 3,-57 7,-9 20,-9 27,0 4,5 3,9 3,18 0,9 -2,35 1,41 2,2 23,1 27,1 1,-2 2,-3 2,-6 0,-13 1,-50 -2,-60 -1,-2 -1,-3 -2,-5 -7,-17 -29,-26 -46,-21 -11,3 -14,11 -17,14z"/>
    <path class="fil0" d="M298 10c0,21 -2,17 43,17 -3,5 -8,8 -12,12l-11 13c-5,7 -22,21 -22,27 0,13 0,9 4,16l74 0c5,-7 3,-8 3,-21l-3 -3 -40 0 27 -31c18,-18 15,-15 15,-35 -2,-1 -5,-3 -8,-3l-62 0c-5,0 -8,3 -8,8z"/>
    <path class="fil0" d="M102 148l-9 0c0,-4 1,-3 1,-8l9 0 -1 8zm-12 -14l-9 0 0 6 7 0 -1 8 -9 0 0 5 7 0c0,5 -1,5 -1,9l6 0c1,-11 2,-9 10,-9 0,5 -1,5 -1,9l6 0c1,-11 2,-9 9,-9l0 -5 -6 0c0,-4 1,-3 1,-8l8 0 0 -6 -6 0c0,-4 1,-4 1,-9l-5 0c-1,2 -2,6 -2,9l-9 0c1,-8 5,-9 -4,-9 -1,2 -2,6 -2,9z"/>
    <path class="fil0" d="M218 140c6,0 9,3 9,9 0,5 -2,5 -4,8 -6,0 -12,-1 -12,-8 0,-4 3,-9 7,-9zm-13 8c0,9 5,16 14,16 5,0 5,-2 8,-4 0,7 0,7 -3,11 -15,0 -6,-1 -12,-4 -2,-1 -5,0 -7,0 3,14 29,15 29,-5 0,-30 2,-27 -7,-27l0 3c-4,-3 -11,-8 -19,0 -2,2 -4,6 -4,10z"/>
    <path class="fil0" d="M307 149c0,-6 3,-9 9,-9 3,0 4,3 6,4l0 9c-6,4 -1,4 -11,4 -2,-3 -4,-4 -4,-8zm0 -11l0 -3 -6 0 0 42c8,0 6,0 6,-18 3,2 4,4 8,4 7,0 11,-3 13,-8 4,-9 -1,-22 -12,-22 -5,0 -6,2 -9,4z"/>
    <path class="fil0" d="M419 157l-5 0c-3,-4 -4,-3 -4,-9 0,-16 23,-7 14,6 -1,1 -3,3 -5,3zm-9 -20l0 -3 -6 0 0 42c8,0 6,0 6,-18 3,2 4,4 8,4 15,0 18,-16 11,-25 -6,-8 -15,-4 -19,0z"/>
    <path class="fil0" d="M506 156c-3,2 -7,1 -12,1l0 -10c9,0 8,-1 13,3 0,8 0,3 -1,6zm-6 -14l-6 0 0 -9c11,0 12,-2 12,7 -2,1 -3,2 -6,2zm-12 -12l0 33c22,0 26,2 26,-13 -3,-2 -2,-3 -6,-4l5 -4c0,-5 1,-10 -4,-12 -4,-2 -9,-1 -17,-1 -3,0 -4,-2 -4,2z"/>
    <path class="fil0" d="M603 149c0,-5 3,-9 7,-9 5,0 5,2 8,4l0 9c-3,2 -3,4 -7,4 -5,0 -8,-3 -8,-8zm-6 -4c0,7 -1,19 13,19 3,0 6,-2 8,-3l7 2 0 -28 -7 2c-15,-8 -22,4 -22,8z"/>
    <path class="fil0" d="M272 149c0,-10 9,-12 13,-7 3,3 4,16 -5,16 -3,0 -5,-1 -6,-2 -1,-1 -2,-4 -2,-6zm-6 -3c0,16 8,22 22,14l7 2 0 -28c-7,0 -5,0 -8,2 -9,-8 -21,1 -21,9z"/>
    <path class="fil0" d="M333 142c0,7 0,12 6,17 6,5 16,6 23,2 4,-3 6,-5 6,-9 -15,0 -5,5 -17,5 -15,0 -16,-25 1,-25 9,0 1,5 16,5 -1,-17 -34,-14 -34,4z"/>
    <path class="fil0" d="M703 140c6,0 9,3 9,9 0,5 -2,5 -4,8 -5,0 -12,0 -12,-8 0,-4 3,-9 7,-9zm-13 6c0,6 0,10 4,14 8,8 16,1 18,-1l0 3 6 0 0 -28 -6 0 0 3c-4,-3 -10,-8 -18,-1 -2,2 -5,6 -5,9z"/>
    <path class="fil0" d="M440 148c0,-10 17,-13 17,1 0,9 -11,10 -14,6 -1,-1 -2,-6 -2,-7zm-6 -2c0,8 2,18 12,18 6,0 7,-2 10,-4l0 3 6 0 0 -28 -6 0 0 3c-6,-4 -12,-6 -18,-1 -2,2 -4,6 -4,9z"/>
    <path class="fil0" d="M527 140l2 0 2 0c6,0 5,3 7,6l-14 0c0,-5 1,-3 3,-6zm-10 6c0,10 2,18 16,18 6,0 10,-4 11,-9l-7 0c-1,4 -2,3 -9,3 -2,-3 -3,-1 -3,-6l21 0c0,-4 1,-2 0,-5 -2,-13 -16,-15 -23,-9 -2,2 -5,6 -5,9z"/>
    <path class="fil0" d="M384 140c5,0 6,2 7,6l-14 0c2,-4 2,-6 7,-6zm-13 5c0,7 -1,19 13,19 9,0 11,-5 13,-9 -16,0 0,3 -18,3 -1,-2 -2,-3 -3,-6 4,0 8,0 12,0 5,0 9,1 9,-3 0,-6 -3,-11 -8,-13 -10,-4 -20,3 -20,10z"/>
    <path class="fil0" d="M153 140l7 0c2,3 3,1 3,6l-13 0c0,-5 1,-3 3,-6zm-10 6c0,8 2,18 13,18 7,0 12,-3 13,-9 -2,0 -5,0 -7,0 -3,1 0,3 -7,3 -6,0 -5,-2 -7,-6l22 0c0,-23 -19,-18 -23,-15 -2,2 -5,6 -5,10z"/>
    <path class="fil0" d="M240 163l6 0 0 -10c3,2 7,7 9,10l8 0c-1,-5 -7,-8 -11,-13 5,-8 10,-10 11,-14l-8 0c-1,2 -3,4 -4,5 -2,2 -3,4 -5,5l0 -21 -6 0 0 38z"/>
    <path class="fil0" d="M638 137c-1,-1 1,-3 -4,-2 -2,0 -3,1 -3,3l0 25 7 0 0 -20c4,-4 4,-4 11,-2 2,8 1,12 1,22l7 0c0,-9 3,-29 -11,-29 -4,0 -6,2 -8,3z"/>
    <path class="fil0" d="M666 176l6 0 17 -41 -6 0 -8 20c-1,-3 -2,-7 -3,-9 -1,-4 -3,-6 -3,-10l-7 0c0,4 2,7 3,10 1,3 3,7 4,10 6,16 -1,7 -2,21z"/>
    <path class="fil0" d="M181 137c-1,-2 1,-2 -6,-2l0 28 6 0c0,-10 -2,-23 6,-23 10,0 7,9 7,23l6 0c0,-10 3,-29 -10,-29 -4,0 -6,2 -9,3z"/>
    <path class="fil0" d="M470 135l-3 0c0,5 -1,4 3,5 0,4 0,10 0,13 1,6 2,6 4,9l10 0c0,-11 -7,-1 -7,-8l0 -14c7,0 7,0 7,-4 -3,-1 -3,-1 -7,-1l0 -7 -7 0 0 7z"/>
    <path class="fil0" d="M581 135l-3 0 0 5 3 0c0,14 -2,16 3,23l10 0 0 -5 -6 0 0 -18 6 0 0 -5 -6 0c0,-8 1,-7 -7,-7l0 7z"/>
    <path class="fil0" d="M123 127l0 35 19 0c0,-3 0,-3 -1,-5l-11 0 0 -30c-2,0 -5,-1 -6,0z"/>
    <path class="fil0" d="M555 137c-1,-2 1,-2 -6,-2l0 28 6 0 0 -12c0,-15 9,-5 9,-13 0,-6 -7,-1 -9,0z"/>
    <polygon class="fil0" points="567,163 574,163 574,135 567,135 "/>
    <path class="fil0" d="M736 50l0 3c10,5 12,-3 9,-7 -3,-4 -9,-4 -9,4z"/>
    <path class="fil0" d="M566 126c0,3 1,4 3,5 3,-1 3,-1 5,-2 0,-5 0,-3 -2,-6 -2,0 -6,0 -6,3z"/>
   </g>
  </g>
 </g>
</svg>
