<?xml version="1.0" encoding="UTF-8"?>
<!DOCTYPE svg PUBLIC "-//W3C//DTD SVG 1.1//EN" "http://www.w3.org/Graphics/SVG/1.1/DTD/svg11.dtd">
<!-- Creator: CorelDRAW 2020 (64-Bit) -->
<svg xmlns="http://www.w3.org/2000/svg" xml:space="preserve" width="366px" height="68px" version="1.1" style="shape-rendering:geometricPrecision; text-rendering:geometricPrecision; image-rendering:optimizeQuality; fill-rule:evenodd; clip-rule:evenodd"
viewBox="0 0 109.959 20.318"
 xmlns:xlink="http://www.w3.org/1999/xlink"
 xmlns:xodm="http://www.corel.com/coreldraw/odm/2003">
 <defs>
  <style type="text/css">
   <![CDATA[
    .fil0 {fill:gray}
   ]]>
  </style>
 </defs>
 <g id="Layer_x0020_1">
  <metadata id="CorelCorpID_0Corel-Layer"/>
  <g id="_1674110790512">
   <path class="fil0" d="M3.381 12.84c0,-1.883 1.334,-4.055 2.841,-4.055 1.237,0 1.645,-0.017 2.742,1.179 1.721,1.877 1.125,6.93 -2.472,6.93 -1.98,0 -3.111,-2.342 -3.111,-4.054zm6.763 -6.217c-0.485,-0.257 -0.87,-0.511 -1.444,-0.72 -4.5,-1.638 -8.7,2.4 -8.7,6.126 0,2.275 0.136,4.231 1.993,6.118 1.18,1.198 2.885,1.991 4.634,1.991 1.469,0 2.551,-0.571 3.517,-1.081l0 0.811 4.057 0 0 -19.192c0,-0.312 -0.094,-0.406 -0.405,-0.406l-3.652 0 0 6.353z"/>
   <path class="fil0" d="M48.285 19.868l4.057 0 0 -5.001c0.644,-0.233 0.658,-0.661 1.488,-1.216 0.284,0.535 0.581,0.971 0.902,1.531l2.885 4.686 4.869 0 -5.951 -9.056 4.7 -4.493c0.325,-0.32 0.454,-0.326 0.575,-0.778 -1.172,0 -2.346,0.008 -3.517,0 -1.283,-0.009 -0.804,-0.21 -2.333,1.318 -0.641,0.641 -1.183,1.186 -1.827,1.824 -0.376,0.373 -0.447,0.585 -0.808,0.949 -0.343,0.344 -0.601,0.654 -0.983,0.91l0 -10.407 -4.057 0 0 19.733z"/>
   <path class="fil0" d="M25.563 11.218l-5.816 0c0.07,-3.15 4.767,-4.394 5.935,-0.929 0.151,0.449 0.488,0.929 -0.119,0.929zm-9.874 1.351c0,1.2 0.125,2.328 0.496,3.289 0.145,0.378 0.412,0.829 0.584,1.173 0.395,0.791 1.04,1.388 1.736,1.915 0.36,0.271 0.742,0.502 1.197,0.696 3.962,1.683 9.018,0.206 10.053,-4.234l-3.516 0c-1.481,2.797 -6.492,2.631 -6.492,-1.622l10.279 0c0,-1.614 -0.011,-2.7 -0.634,-4.232 -0.187,-0.46 -0.306,-0.819 -0.554,-1.204l-0.805 -1.088c-0.468,-0.519 -1.483,-1.233 -2.143,-1.508 -2.02,-0.841 -4.106,-0.673 -5.992,0.073 -2.378,0.942 -4.209,3.737 -4.209,6.742z"/>
   <path class="fil0" d="M90.618 19.868c2.395,0 2.179,0.184 2.168,-0.943 -0.023,-2.109 -0.268,-8.172 0.375,-9.356 0.951,-1.75 2.843,-2.527 4.388,-1.492 0.024,0.016 0.057,0.037 0.08,0.054l0.287 0.254c0.573,0.619 0.953,1.556 0.953,2.562l0 8.921 2.299 0 0 -8.921c0,-0.914 0.46,-1.89 1.046,-2.468 0.352,-0.348 0.572,-0.495 1.094,-0.664 3.182,-1.033 4.352,1.384 4.352,4.214l0 7.839c1.539,0 2.299,0.217 2.299,-0.406l0 -7.704c0,-2.983 -1.03,-5.061 -3.26,-5.797 -1.011,-0.334 -2.774,-0.294 -3.826,0.068 -0.71,0.245 -1.029,0.47 -1.497,0.937l-0.185 0.22c-0.3,0.343 -0.568,0.566 -0.699,1.058 -0.019,-0.026 -0.046,-0.101 -0.054,-0.082 -0.007,0.02 -0.041,-0.065 -0.051,-0.083 -0.406,-0.715 -0.51,-1.081 -1.245,-1.595 -0.736,-0.514 -1.476,-0.728 -2.451,-0.805 -1.255,-0.099 -3.003,0.482 -3.828,1.7 -0.09,0.133 -0.071,0.12 -0.163,0.242 -0.256,0.338 0.009,-0.009 -0.188,0.218l0 -2.163 -1.894 0 0 14.192z"/>
   <path class="fil0" d="M32.866 5.541l-2.299 0 0 2.703 2.299 0 0 8.515c0,3.763 3.81,3.244 6.492,3.244 0.697,0 0.406,-1.335 0.406,-3.244 -3.511,0.292 -2.84,0.872 -2.84,-8.515l2.84 0c0,-3.335 0.645,-2.703 -2.84,-2.703l0 -4.189 -4.058 0 0 4.189z"/>
   <path class="fil0" d="M77.228 12.84c0,-2.712 2.298,-4.866 4.328,-4.866 1.078,0 1.9,-0.093 2.87,0.511 4.587,2.857 2.316,8.664 -1.382,9.085 -0.437,0.049 -0.726,0.159 -1.068,0.132 -2.631,-0.202 -4.748,-2.238 -4.748,-4.862zm-2.299 -0.135c0,2.587 1.453,5.171 3.786,6.353 4.763,2.416 10.551,-0.488 10.551,-6.624 0,-3.498 -3.262,-6.758 -6.763,-6.758 -2.32,0 -3.372,0.341 -5.04,1.721 -1.511,1.25 -2.534,3.266 -2.534,5.308z"/>
   <path class="fil0" d="M68.302 19.868l1.488 0c1.603,0 3.69,-1.212 4.328,-2.163 -0.146,-0.218 -1.283,-1.487 -1.488,-1.487 -0.497,0 -2.134,2.407 -5.431,1.102 -1.063,-0.42 -1.886,-1.175 -2.44,-2.157 -0.742,-1.315 -0.85,-2.747 -0.287,-4.123 0.123,-0.301 0.188,-0.496 0.337,-0.745 0.173,-0.29 0.342,-0.417 0.542,-0.674 0.274,-0.352 0.098,-0.282 0.512,-0.57 1.745,-1.219 3.942,-1.56 5.715,-0.431 0.669,0.426 0.894,0.869 1.458,1.246l1.517 -1.592c-1.666,-2.456 -5.786,-3.372 -8.78,-1.881 -0.34,0.17 -0.709,0.437 -0.991,0.632 -0.241,0.167 -0.215,0.166 -0.436,0.375l-0.434 0.377c-0.925,0.92 -1.536,2.114 -1.887,3.385 -0.283,1.024 -0.231,1.963 -0.056,3.006 0.206,1.227 0.978,2.491 1.708,3.428 0.774,0.996 3.11,2.272 4.625,2.272z"/>
   <path class="fil0" d="M41.793 5.947l0 13.921 4.057 0 0 -13.921c0,-0.312 -0.094,-0.406 -0.406,-0.406l-3.246 0c-0.311,0 -0.405,0.094 -0.405,0.406z"/>
   <path class="fil0" d="M41.793 1.892c0,2.663 2.422,2.516 3.143,2.06 2.127,-1.345 0.68,-3.952 -0.979,-3.952 -1.044,0 -2.164,0.887 -2.164,1.892z"/>
  </g>
 </g>
</svg>
